<?xml version="1.0" standalone="no"?>
<!DOCTYPE svg PUBLIC "-//W3C//DTD SVG 20010904//EN"
 "http://www.w3.org/TR/2001/REC-SVG-20010904/DTD/svg10.dtd">
<svg version="1.0" xmlns="http://www.w3.org/2000/svg"
 width="352.000000pt" height="352.000000pt" viewBox="0 0 352.000000 352.000000"
 preserveAspectRatio="xMidYMid meet">
<metadata>
Created by potrace 1.11, written by Peter Selinger 2001-2013
</metadata>
<g transform="translate(0.000000,352.000000) scale(0.100000,-0.100000)"
fill="#000000" stroke="none">
<path d="M250 1765 l0 -1515 1515 0 1515 0 0 1515 0 1515 -1515 0 -1515 0 0
-1515z m295 928 l140 -226 3 227 2 226 40 0 40 0 0 -295 0 -295 -47 0 -48 0
-140 223 -140 222 -3 -223 -2 -222 -45 0 -45 0 0 295 0 295 53 0 52 -1 140
-226z m1183 200 c5 -16 53 -147 106 -292 53 -145 96 -265 96 -267 0 -2 -22 -4
-48 -4 l-48 0 -28 85 -27 85 -113 0 -113 0 -30 -82 -29 -83 -47 -3 -47 -3 19
48 c10 26 60 159 111 296 l93 247 47 0 c43 0 49 -3 58 -27z m1076 -203 l141
-225 3 228 2 227 40 0 40 0 0 -295 0 -295 -48 0 -48 0 -145 228 -144 227 -3
-227 -2 -228 -40 0 -40 0 0 296 0 295 52 -3 51 -3 141 -225z m-2109 -1304
c102 -48 149 -132 150 -266 0 -108 -22 -173 -81 -239 -57 -64 -113 -86 -215
-85 -174 1 -274 115 -273 309 1 109 29 180 94 238 59 54 92 65 195 66 65 1 90
-4 130 -23z m1116 9 c72 -26 119 -85 119 -150 0 -24 -3 -26 -41 -23 -37 3 -43
7 -53 37 -17 53 -54 74 -130 75 -58 1 -68 -2 -95 -28 -36 -35 -42 -83 -13
-109 10 -9 72 -30 137 -47 175 -44 211 -77 209 -187 -2 -67 -37 -116 -103
-146 -66 -31 -199 -30 -258 1 -56 29 -94 81 -101 137 l-5 45 42 0 c32 0 41 -4
41 -17 0 -32 40 -84 75 -99 49 -20 128 -18 174 6 41 21 51 36 51 79 0 46 -37
70 -157 100 -112 29 -160 49 -182 75 -35 42 -30 141 9 196 46 65 180 90 281
55z m879 -115 l0 -120 150 0 150 0 0 120 0 120 45 0 45 0 0 -295 0 -295 -45 0
-45 0 0 135 0 135 -150 0 -150 0 0 -135 0 -135 -40 0 -40 0 0 295 0 295 40 0
40 0 0 -120z"/>
<path d="M1653 2777 c-6 -17 -24 -69 -41 -114 l-31 -83 84 0 84 0 -40 112
c-22 62 -42 114 -43 115 -1 2 -7 -12 -13 -30z"/>
<path d="M507 1326 c-57 -16 -93 -47 -117 -101 -54 -122 -19 -284 72 -331 17
-9 56 -18 87 -21 82 -7 137 24 174 97 101 200 -25 407 -216 356z"/>
</g>
</svg>
